<?xml version="1.0" encoding="iso-8859-1"?>
<!-- Generator: Adobe Illustrator 19.0.0, SVG Export Plug-In . SVG Version: 6.00 Build 0)  -->
<svg version="1.1" id="Capa_1" xmlns="http://www.w3.org/2000/svg" xmlns:xlink="http://www.w3.org/1999/xlink" x="0px" y="0px"
	 viewBox="0 0 483.291 483.291" style="enable-background:new 0 0 483.291 483.291;" xml:space="preserve">
<g>
	<g>
		<g>
			<path d="M454.255,28.729C435.833,10.368,410.896,0.04,384.886,0c-26.098-0.03-51.126,10.367-69.52,28.88L32.246,312
				c-40.212,36.622-43.122,98.908-6.5,139.12s98.908,43.122,139.12,6.5c2.267-2.064,4.436-4.233,6.5-6.5L454.486,168
				C492.881,129.477,492.778,67.123,454.255,28.729z M443.366,156.88L160.246,440c-32.276,32.276-84.604,32.276-116.88,0
				s-32.276-84.604,0-116.88L326.486,40c32.276-32.276,84.604-32.276,116.88,0S475.642,124.605,443.366,156.88z"/>
			<rect x="331.366" y="72" width="16" height="16"/>
			<rect x="363.366" y="104" width="16" height="16"/>
			<rect x="395.366" y="136" width="16" height="16"/>
			<rect x="363.366" y="40" width="16" height="16"/>
			<rect x="395.366" y="72" width="16" height="16"/>
			<rect x="427.366" y="104" width="16" height="16"/>
			<rect x="299.366" y="104" width="16" height="16"/>
			<rect x="331.366" y="136" width="16" height="16"/>
			<rect x="363.366" y="168" width="16" height="16"/>
			<path d="M276.326,157.68c-9.475-9.103-24.445-9.103-33.92,0l-81.36,81.36c-9.359,9.37-9.359,24.55,0,33.92l49.36,49.36
				c9.37,9.359,24.55,9.359,33.92,0l81.36-81.36c9.359-9.37,9.359-24.55,0-33.92L276.326,157.68z M314.406,229.68l-81.36,81.36
				c-3.111,3.137-8.177,3.158-11.314,0.046c-0.016-0.015-0.031-0.031-0.046-0.046l-49.36-49.36
				c-3.137-3.111-3.158-8.177-0.046-11.314c0.015-0.016,0.031-0.031,0.046-0.046l81.36-81.36c3.111-3.137,8.177-3.158,11.314-0.046
				c0.016,0.015,0.031,0.031,0.046,0.046l49.36,49.36C317.503,221.44,317.46,226.517,314.406,229.68z"/>
			<rect x="75.366" y="328" width="16" height="16"/>
			<rect x="107.366" y="360" width="16" height="16"/>
			<rect x="139.366" y="392" width="16" height="16"/>
			<rect x="107.366" y="296" width="16" height="16"/>
			<rect x="139.366" y="328" width="16" height="16"/>
			<rect x="171.366" y="360" width="16" height="16"/>
			<rect x="43.366" y="360" width="16" height="16"/>
			<rect x="75.366" y="392" width="16" height="16"/>
			<rect x="107.366" y="424" width="16" height="16"/>
		</g>
	</g>
</g>
<g>
</g>
<g>
</g>
<g>
</g>
<g>
</g>
<g>
</g>
<g>
</g>
<g>
</g>
<g>
</g>
<g>
</g>
<g>
</g>
<g>
</g>
<g>
</g>
<g>
</g>
<g>
</g>
<g>
</g>
</svg>
